<?xml version="1.0" encoding="utf-8"?>
<!-- Generator: Adobe Illustrator 18.1.1, SVG Export Plug-In . SVG Version: 6.00 Build 0)  -->
<!DOCTYPE svg PUBLIC "-//W3C//DTD SVG 1.1//EN" "http://www.w3.org/Graphics/SVG/1.1/DTD/svg11.dtd">
<svg version="1.1" id="Layer_1" xmlns="http://www.w3.org/2000/svg" xmlns:xlink="http://www.w3.org/1999/xlink" x="0px" y="0px"
	 viewBox="-253 239 44 36" enable-background="new -253 239 44 36" xml:space="preserve">
<path fill="#FFFFFF" d="M-253,269v6h6C-247,271.7-249.7,269-253,269z M-253,261v4c5.5,0,10,4.5,10,10h4
	C-239,267.3-245.3,261-253,261z M-217,247h-28v3.3c7.9,2.6,14.2,8.8,16.7,16.7h11.3V247z M-253,253v4c9.9,0,18,8.1,18,18h4
	C-231,262.8-240.9,253-253,253z M-213,239h-36c-2.2,0-4,1.8-4,4v6h4v-6h36v28h-14v4h14c2.2,0,4-1.8,4-4v-28
	C-209,240.8-210.8,239-213,239z"/>
</svg>
